<svg width="60" height="60" viewBox="0 0 60 60" fill="none" xmlns="http://www.w3.org/2000/svg">
<path d="M51.25 16.25L55 20" stroke="#262626" stroke-width="2.5" stroke-linecap="round" stroke-linejoin="round"/>
<path d="M40 11.25C40 14.7018 42.7983 17.5 46.25 17.5C47.979 17.5 49.5437 16.798 50.6752 15.6635C51.8027 14.533 52.5 12.9729 52.5 11.25C52.5 7.79822 49.7017 5 46.25 5C42.7983 5 40 7.79822 40 11.25Z" stroke="#262626" stroke-width="2.5" stroke-linecap="round" stroke-linejoin="round"/>
<path d="M32.5 5.12345C31.6777 5.0418 30.8438 5 30 5C16.1929 5 5 16.1929 5 30C5 34.5535 6.21743 38.8227 8.34455 42.5L6.25 53.75L17.5 51.6555C21.1772 53.7825 25.4465 55 30 55C43.807 55 55 43.807 55 30C55 29.1562 54.9582 28.3223 54.8765 27.5" stroke="#262626" stroke-width="2.5" stroke-linecap="round" stroke-linejoin="round"/>
</svg>
