<svg width="53" height="53" viewBox="0 0 53 53" fill="none" xmlns="http://www.w3.org/2000/svg">
<path fill-rule="evenodd" clip-rule="evenodd" d="M2.84375 15.3672V9.07812C2.84375 5.64047 5.64052 2.84375 9.07812 2.84375H15.3672C16.1524 2.84375 16.7891 2.20713 16.7891 1.42188C16.7891 0.636617 16.1524 0 15.3672 0H9.07812C4.07247 0 0 4.07241 0 9.07812V15.3672C0 16.1524 0.636617 16.7891 1.42188 16.7891C2.20713 16.7891 2.84375 16.1524 2.84375 15.3672ZM15.3672 53.1563C16.1524 53.1563 16.7891 53.7929 16.7891 54.5782C16.7891 55.3635 16.1524 56.0001 15.3672 56.0001H9.07812C4.07247 56.0001 0 51.9276 0 46.9219V40.6329C0 39.8476 0.636617 39.211 1.42188 39.211C2.20713 39.211 2.84375 39.8476 2.84375 40.6329V46.9219C2.84375 50.3595 5.64052 53.1563 9.07812 53.1563H15.3672ZM56.0001 40.6329V46.9219C56.0001 51.9276 51.9276 56.0001 46.9219 56.0001H40.6329C39.8476 56.0001 39.211 55.3635 39.211 54.5782C39.211 53.7929 39.8476 53.1563 40.6329 53.1563H46.9219C50.3595 53.1563 53.1563 50.3595 53.1563 46.9219V40.6329C53.1563 39.8476 53.7929 39.211 54.5782 39.211C55.3635 39.211 56.0001 39.8476 56.0001 40.6329ZM56.0001 9.07812V15.3672C56.0001 16.1524 55.3635 16.7891 54.5782 16.7891C53.7929 16.7891 53.1563 16.1524 53.1563 15.3672V9.07812C53.1563 5.64047 50.3595 2.84375 46.9219 2.84375H40.6329C39.8476 2.84375 39.211 2.20713 39.211 1.42188C39.211 0.636617 39.8476 0 40.6329 0H46.9219C51.9276 0 56.0001 4.07241 56.0001 9.07812ZM37.8121 41.3895C38.4111 40.8361 38.4481 39.902 37.8948 39.3029C37.3414 38.7039 36.4073 38.6669 35.8083 39.2201C33.6767 41.1891 30.9035 42.2734 27.9995 42.2734C25.0956 42.2734 22.3224 41.1891 20.1908 39.2201C19.5917 38.6669 18.6576 38.7039 18.1043 39.3029C17.5509 39.902 17.588 40.8361 18.187 41.3895C20.8659 43.8639 24.3506 45.2266 27.9995 45.2266C31.6484 45.2266 35.1332 43.8639 37.8121 41.3895ZM30.9527 21.1091V31.6091C30.9527 33.6898 29.26 35.3825 27.1793 35.3825H25.9761C25.1606 35.3825 24.4996 34.7215 24.4996 33.906C24.4996 33.0905 25.1606 32.4294 25.9761 32.4294H27.1793C27.6316 32.4294 27.9996 32.0614 27.9996 31.6091V21.1091C27.9996 20.2936 28.6607 19.6325 29.4762 19.6325C30.2917 19.6325 30.9527 20.2936 30.9527 21.1091ZM41.125 25.238V21.0271C41.125 20.2569 40.5006 19.6325 39.7304 19.6325C38.9603 19.6325 38.3359 20.2569 38.3359 21.0271V25.238C38.3359 26.0082 38.9603 26.6325 39.7304 26.6325C40.5006 26.6325 41.125 26.0082 41.125 25.238ZM15.2037 25.238C15.2037 26.0082 15.8281 26.6325 16.5983 26.6325C17.3684 26.6325 17.9928 26.0082 17.9928 25.238V21.0271C17.9928 20.2569 17.3684 19.6325 16.5983 19.6325C15.8281 19.6325 15.2037 20.2569 15.2037 21.0271V25.238Z" fill="#131313"/>
</svg>
