<svg width="55" height="55" viewBox="0 0 60 60" fill="none" xmlns="http://www.w3.org/2000/svg">
<path fill-rule="evenodd" clip-rule="evenodd" d="M2.84375 15.3672V9.07812C2.84375 5.64047 5.64052 2.84375 9.07812 2.84375H15.3672C16.1524 2.84375 16.7891 2.20713 16.7891 1.42188C16.7891 0.636617 16.1524 0 15.3672 0H9.07812C4.07247 0 0 4.07241 0 9.07812V15.3672C0 16.1524 0.636617 16.7891 1.42188 16.7891C2.20713 16.7891 2.84375 16.1524 2.84375 15.3672ZM15.3672 53.1562C16.1524 53.1562 16.7891 53.7928 16.7891 54.5781C16.7891 55.3634 16.1524 56 15.3672 56H9.07812C4.07247 56 0 51.9275 0 46.9219V40.6328C0 39.8475 0.636617 39.2109 1.42188 39.2109C2.20713 39.2109 2.84375 39.8475 2.84375 40.6328V46.9219C2.84375 50.3595 5.64052 53.1562 9.07812 53.1562H15.3672ZM56.0001 40.6328V46.9219C56.0001 51.9275 51.9276 56 46.9219 56H40.6329C39.8476 56 39.211 55.3634 39.211 54.5781C39.211 53.7928 39.8476 53.1562 40.6329 53.1562H46.9219C50.3595 53.1562 53.1563 50.3595 53.1563 46.9219V40.6328C53.1563 39.8475 53.7929 39.2109 54.5782 39.2109C55.3635 39.2109 56.0001 39.8475 56.0001 40.6328ZM56.0001 9.07812V15.3672C56.0001 16.1524 55.3635 16.7891 54.5782 16.7891C53.7929 16.7891 53.1563 16.1524 53.1563 15.3672V9.07812C53.1563 5.64047 50.3595 2.84375 46.9219 2.84375H40.6329C39.8476 2.84375 39.211 2.20713 39.211 1.42188C39.211 0.636617 39.8476 0 40.6329 0H46.9219C51.9276 0 56.0001 4.07241 56.0001 9.07812ZM37.8121 41.3893C38.4111 40.836 38.4481 39.9018 37.8948 39.3028C37.3414 38.7038 36.4073 38.6667 35.8083 39.22C33.6767 41.189 30.9035 42.2733 27.9995 42.2733C25.0956 42.2733 22.3224 41.189 20.1908 39.22C19.5917 38.6667 18.6576 38.7038 18.1043 39.3028C17.5509 39.9018 17.588 40.836 18.187 41.3893C20.8659 43.8637 24.3506 45.2264 27.9995 45.2264C31.6484 45.2264 35.1332 43.8637 37.8121 41.3893ZM30.9534 21.1094V31.6094C30.9534 33.6901 29.2607 35.3828 27.18 35.3828H25.9769C25.1614 35.3828 24.5003 34.7217 24.5003 33.9062C24.5003 33.0907 25.1614 32.4297 25.9769 32.4297H27.18C27.6323 32.4297 28.0003 32.0617 28.0003 31.6094V21.1094C28.0003 20.2939 28.6614 19.6328 29.4769 19.6328C30.2924 19.6328 30.9534 20.2939 30.9534 21.1094ZM41.125 25.2383V21.0273C41.125 20.2572 40.5006 19.6328 39.7304 19.6328C38.9603 19.6328 38.3359 20.2572 38.3359 21.0273V25.2383C38.3359 26.0084 38.9603 26.6328 39.7304 26.6328C40.5006 26.6328 41.125 26.0084 41.125 25.2383ZM15.203 25.2383C15.203 26.0084 15.8274 26.6328 16.5976 26.6328C17.3677 26.6328 17.9921 26.0084 17.9921 25.2383V21.0273C17.9921 20.2572 17.3677 19.6328 16.5976 19.6328C15.8274 19.6328 15.203 20.2572 15.203 21.0273V25.2383Z" fill="#262626  "/>
</svg>
