<svg width="60" height="60" viewBox="0 0 60 60" fill="none" xmlns="http://www.w3.org/2000/svg">
<path d="M7.5 25V47.5C7.5 50.2615 9.73857 52.5 12.5 52.5H47.5C50.2615 52.5 52.5 50.2615 52.5 47.5V25" stroke="#262626" stroke-width="2.5"/>
<path d="M37.0832 52.5V37.5C37.0832 34.7385 34.8447 32.5 32.0832 32.5H27.0832C24.3218 32.5 22.0833 34.7385 22.0833 37.5V52.5" stroke="#262626" stroke-width="2.5" stroke-miterlimit="16"/>
<path d="M54.5458 23.4104L50.3108 8.58792C50.1268 7.94397 49.5382 7.5 48.8685 7.5H38.75L39.9382 21.7594C39.9772 22.2261 40.2308 22.6476 40.633 22.8874C41.6063 23.4675 43.513 24.5425 45 25C47.5395 25.7812 51.252 25.4995 53.3663 25.2395C54.2455 25.1315 54.7893 24.2622 54.5458 23.4104Z" stroke="#262626" stroke-width="2.5"/>
<path d="M35.0001 25C36.4188 24.5634 38.2198 23.5647 39.2273 22.9702C39.7071 22.6872 39.9711 22.1526 39.9248 21.5976L38.7501 7.5H21.2501L20.0753 21.5976C20.029 22.1526 20.2932 22.6872 20.7727 22.9702C21.7803 23.5647 23.5813 24.5634 25.0001 25C28.7326 26.1485 31.2676 26.1485 35.0001 25Z" stroke="#262626" stroke-width="2.5"/>
<path d="M9.68925 8.58792L5.45423 23.4104C5.21085 24.2622 5.75458 25.1315 6.63383 25.2395C8.74798 25.4995 12.4607 25.7812 15.0001 25C16.487 24.5425 18.3939 23.4674 19.367 22.8874C19.7693 22.6476 20.0229 22.2261 20.0618 21.7594L21.2501 7.5H11.1315C10.4618 7.5 9.87323 7.94397 9.68925 8.58792Z" stroke="#262626" stroke-width="2.5"/>
</svg>
