<svg width="167" height="25" viewBox="0 0 167 25" fill="none" xmlns="http://www.w3.org/2000/svg">
<path d="M9.432 0.959999C11.4373 0.959999 12.92 1.39733 13.88 2.272C14.8613 3.14667 15.352 4.288 15.352 5.696C15.352 6.89067 15.0213 7.808 14.36 8.448C13.6987 9.06667 12.7493 9.376 11.512 9.376C11.128 9.376 10.8827 9.344 10.776 9.28C10.6693 9.19467 10.616 9.03467 10.616 8.8C10.616 8.58667 10.5947 8.30933 10.552 7.968C10.5307 7.62667 10.456 7.296 10.328 6.976C10.2 6.656 9.99733 6.38933 9.72 6.176C9.44267 5.94133 9.05867 5.824 8.568 5.824C7.88533 5.824 7.27733 6.03733 6.744 6.464C6.21067 6.86933 5.944 7.40267 5.944 8.064C5.944 8.64 6.15733 9.10933 6.584 9.472C7.032 9.83467 7.58667 10.176 8.248 10.496C8.90933 10.7947 9.624 11.104 10.392 11.424C11.1813 11.744 11.9067 12.1707 12.568 12.704C13.2293 13.216 13.7733 13.8667 14.2 14.656C14.648 15.424 14.872 16.4053 14.872 17.6C14.872 18.5387 14.712 19.424 14.392 20.256C14.0933 21.0667 13.6347 21.7813 13.016 22.4C12.4187 22.9973 11.6507 23.4667 10.712 23.808C9.79467 24.1493 8.71733 24.32 7.48 24.32C6.41333 24.32 5.42133 24.2027 4.504 23.968C3.608 23.7333 2.81867 23.4453 2.136 23.104C1.47467 22.7413 0.952 22.3573 0.568 21.952C0.184 21.5253 -0.00799996 21.1413 -0.00799996 20.8C-0.00799996 19.392 0.0666667 18.3787 0.216 17.76C0.386667 17.1413 0.685333 16.832 1.112 16.832C1.41067 16.832 1.72 16.96 2.04 17.216C2.38133 17.472 2.76533 17.76 3.192 18.08C3.61867 18.4 4.10933 18.688 4.664 18.944C5.24 19.2 5.90133 19.328 6.648 19.328C6.94667 19.328 7.23467 19.3067 7.512 19.264C7.81067 19.2 8.06667 19.104 8.28 18.976C8.51467 18.848 8.696 18.6773 8.824 18.464C8.97333 18.2507 9.048 17.9947 9.048 17.696C9.048 17.1627 8.84533 16.736 8.44 16.416C8.03467 16.096 7.52267 15.808 6.904 15.552C6.28533 15.2747 5.61333 14.9973 4.888 14.72C4.184 14.4213 3.52267 14.0267 2.904 13.536C2.28533 13.024 1.77333 12.3733 1.368 11.584C0.962667 10.7947 0.76 9.78133 0.76 8.544C0.76 7.15733 1.016 5.984 1.528 5.024C2.06133 4.064 2.73333 3.28533 3.544 2.688C4.376 2.06933 5.304 1.632 6.328 1.376C7.37333 1.09867 8.408 0.959999 9.432 0.959999ZM26.9045 0.959999C28.9098 0.959999 30.3925 1.39733 31.3525 2.272C32.3338 3.14667 32.8245 4.288 32.8245 5.696C32.8245 6.89067 32.4938 7.808 31.8325 8.448C31.1712 9.06667 30.2218 9.376 28.9845 9.376C28.6005 9.376 28.3552 9.344 28.2485 9.28C28.1418 9.19467 28.0885 9.03467 28.0885 8.8C28.0885 8.58667 28.0672 8.30933 28.0245 7.968C28.0032 7.62667 27.9285 7.296 27.8005 6.976C27.6725 6.656 27.4698 6.38933 27.1925 6.176C26.9152 5.94133 26.5312 5.824 26.0405 5.824C25.3578 5.824 24.7498 6.03733 24.2165 6.464C23.6832 6.86933 23.4165 7.40267 23.4165 8.064C23.4165 8.64 23.6298 9.10933 24.0565 9.472C24.5045 9.83467 25.0592 10.176 25.7205 10.496C26.3818 10.7947 27.0965 11.104 27.8645 11.424C28.6538 11.744 29.3792 12.1707 30.0405 12.704C30.7018 13.216 31.2458 13.8667 31.6725 14.656C32.1205 15.424 32.3445 16.4053 32.3445 17.6C32.3445 18.5387 32.1845 19.424 31.8645 20.256C31.5658 21.0667 31.1072 21.7813 30.4885 22.4C29.8912 22.9973 29.1232 23.4667 28.1845 23.808C27.2672 24.1493 26.1898 24.32 24.9525 24.32C23.8858 24.32 22.8938 24.2027 21.9765 23.968C21.0805 23.7333 20.2912 23.4453 19.6085 23.104C18.9472 22.7413 18.4245 22.3573 18.0405 21.952C17.6565 21.5253 17.4645 21.1413 17.4645 20.8C17.4645 19.392 17.5392 18.3787 17.6885 17.76C17.8592 17.1413 18.1578 16.832 18.5845 16.832C18.8832 16.832 19.1925 16.96 19.5125 17.216C19.8538 17.472 20.2378 17.76 20.6645 18.08C21.0912 18.4 21.5818 18.688 22.1365 18.944C22.7125 19.2 23.3738 19.328 24.1205 19.328C24.4192 19.328 24.7072 19.3067 24.9845 19.264C25.2832 19.2 25.5392 19.104 25.7525 18.976C25.9872 18.848 26.1685 18.6773 26.2965 18.464C26.4458 18.2507 26.5205 17.9947 26.5205 17.696C26.5205 17.1627 26.3178 16.736 25.9125 16.416C25.5072 16.096 24.9952 15.808 24.3765 15.552C23.7578 15.2747 23.0858 14.9973 22.3605 14.72C21.6565 14.4213 20.9952 14.0267 20.3765 13.536C19.7578 13.024 19.2458 12.3733 18.8405 11.584C18.4352 10.7947 18.2325 9.78133 18.2325 8.544C18.2325 7.15733 18.4885 5.984 19.0005 5.024C19.5338 4.064 20.2058 3.28533 21.0165 2.688C21.8485 2.06933 22.7765 1.632 23.8005 1.376C24.8458 1.09867 25.8805 0.959999 26.9045 0.959999ZM49.785 24C48.6757 24 47.8757 23.776 47.385 23.328C46.9157 22.8587 46.6597 22.2827 46.617 21.6C46.3823 22.3253 45.881 22.9653 45.113 23.52C44.3663 24.0533 43.2783 24.32 41.849 24.32C41.017 24.32 40.2063 24.16 39.417 23.84C38.6277 23.4987 37.9237 22.944 37.305 22.176C36.6863 21.408 36.185 20.384 35.801 19.104C35.4383 17.824 35.257 16.2347 35.257 14.336C35.257 13.6107 35.2997 12.7787 35.385 11.84C35.4703 10.88 35.641 9.90933 35.897 8.928C36.1743 7.92533 36.5583 6.95467 37.049 6.016C37.561 5.056 38.2223 4.20267 39.033 3.456C39.865 2.70933 40.8783 2.112 42.073 1.664C43.2677 1.19467 44.697 0.959999 46.361 0.959999C47.449 0.959999 48.4197 1.07733 49.273 1.312C50.1477 1.54667 50.8837 1.87733 51.481 2.304C52.0997 2.73067 52.569 3.25333 52.889 3.872C53.2303 4.49067 53.401 5.184 53.401 5.952C53.401 7.18933 52.9957 8.128 52.185 8.768C51.3743 9.38667 50.233 9.696 48.761 9.696C48.2917 9.696 48.0037 9.664 47.897 9.6C47.8117 9.51467 47.7583 9.35467 47.737 9.12C47.6943 8.736 47.6623 8.352 47.641 7.968C47.641 7.584 47.5877 7.232 47.481 6.912C47.3957 6.592 47.2357 6.336 47.001 6.144C46.7663 5.952 46.393 5.856 45.881 5.856C44.8357 5.856 44.0037 6.15467 43.385 6.752C42.7663 7.34933 42.297 8.07467 41.977 8.928C41.657 9.78133 41.4543 10.6667 41.369 11.584C41.2837 12.48 41.241 13.2373 41.241 13.856C41.241 14.88 41.305 15.744 41.433 16.448C41.561 17.1307 41.7423 17.696 41.977 18.144C42.233 18.5707 42.5317 18.88 42.873 19.072C43.2143 19.2427 43.609 19.328 44.057 19.328C44.8677 19.328 45.5503 19.1573 46.105 18.816C46.6597 18.4747 46.9903 17.856 47.097 16.96L47.289 15.168C47.353 14.5493 47.4383 14.048 47.545 13.664C47.6517 13.2587 47.9077 13.056 48.313 13.056H50.073C50.6063 13.056 51.033 13.12 51.353 13.248C51.6943 13.3547 51.9503 13.5467 52.121 13.824C52.313 14.08 52.441 14.4213 52.505 14.848C52.569 15.2747 52.601 15.7973 52.601 16.416C52.601 16.8427 52.5797 17.408 52.537 18.112C52.5157 18.816 52.473 19.5307 52.409 20.256C52.3663 20.9813 52.313 21.6533 52.249 22.272C52.185 22.8693 52.1317 23.2853 52.089 23.52C52.0463 23.712 51.993 23.84 51.929 23.904C51.865 23.968 51.737 24 51.545 24H49.785ZM147.718 6.944C147.718 7.968 147.526 8.96 147.142 9.92C146.779 10.8587 146.31 11.7547 145.734 12.608C145.158 13.44 144.507 14.2293 143.782 14.976C143.078 15.7013 142.374 16.3627 141.67 16.96C140.987 17.536 140.347 18.048 139.75 18.496C139.152 18.9227 138.694 19.264 138.374 19.52H146.502C146.63 19.52 146.747 19.552 146.854 19.616C146.96 19.68 147.014 19.7973 147.014 19.968L146.886 21.856C146.843 22.496 146.662 23.0187 146.342 23.424C146.043 23.808 145.414 24 144.454 24H133.958C132.87 24 132.102 23.8293 131.654 23.488C131.227 23.1253 131.014 22.5173 131.014 21.664V19.744C131.014 19.6373 131.035 19.5093 131.078 19.36C131.142 19.2107 131.195 19.0933 131.238 19.008C131.43 18.6453 131.824 18.1973 132.422 17.664C133.04 17.1307 133.734 16.5547 134.502 15.936C135.291 15.3173 136.112 14.656 136.966 13.952C137.84 13.248 138.63 12.5333 139.334 11.808C140.059 11.0827 140.656 10.368 141.126 9.664C141.595 8.93867 141.83 8.24533 141.83 7.584C141.83 7.05067 141.648 6.60267 141.286 6.24C140.923 5.856 140.336 5.664 139.526 5.664C139.014 5.664 138.587 5.80267 138.246 6.08C137.926 6.35733 137.659 6.70933 137.446 7.136C137.254 7.54133 137.104 8 136.998 8.512C136.912 9.00267 136.848 9.46133 136.806 9.888C136.763 10.1013 136.688 10.2507 136.582 10.336C136.496 10.4213 136.23 10.464 135.782 10.464C133.414 10.464 132.23 9.32267 132.23 7.04C132.23 5.93067 132.464 4.992 132.934 4.224C133.424 3.456 134.064 2.82667 134.854 2.336C135.643 1.84533 136.518 1.49333 137.478 1.28C138.459 1.04533 139.451 0.927999 140.454 0.927999C141.883 0.927999 143.067 1.12 144.006 1.504C144.944 1.86667 145.691 2.34667 146.246 2.944C146.8 3.52 147.184 4.17067 147.398 4.896C147.611 5.6 147.718 6.28267 147.718 6.944ZM152.297 17.856C151.465 17.856 150.793 17.7173 150.281 17.44C149.79 17.1413 149.545 16.6507 149.545 15.968C149.545 15.712 149.577 15.424 149.641 15.104C149.726 14.7627 149.833 14.336 149.961 13.824C150.11 13.2907 150.292 12.64 150.505 11.872C150.74 11.104 151.017 10.1547 151.337 9.024C151.55 8.27733 151.732 7.60533 151.881 7.008C152.052 6.38933 152.19 5.824 152.297 5.312C152.404 4.8 152.478 4.33067 152.521 3.904C152.585 3.456 152.617 3.01867 152.617 2.592C152.617 2.336 152.638 2.05866 152.681 1.76C152.745 1.44 152.894 1.28 153.129 1.28H154.569C155.785 1.28 156.617 1.49333 157.065 1.92C157.534 2.34667 157.769 3.072 157.769 4.096C157.769 4.48 157.737 4.91733 157.673 5.408C157.609 5.89867 157.492 6.50667 157.321 7.232C157.172 7.95733 156.969 8.82133 156.713 9.824C156.478 10.8267 156.18 12.032 155.817 13.44H160.105C160.169 12.6933 160.233 11.872 160.297 10.976C160.382 10.0587 160.457 9.17333 160.521 8.32C160.585 7.46667 160.638 6.69867 160.681 6.016C160.745 5.312 160.788 4.8 160.809 4.48C160.852 3.73333 160.873 3.14667 160.873 2.72C160.873 2.29333 160.884 1.97333 160.905 1.76C160.948 1.54667 161.001 1.41867 161.065 1.376C161.15 1.312 161.278 1.28 161.449 1.28H163.209C163.892 1.28 164.436 1.35467 164.841 1.504C165.268 1.632 165.598 1.824 165.833 2.08C166.068 2.336 166.228 2.656 166.313 3.04C166.398 3.40267 166.441 3.82933 166.441 4.32C166.441 4.81067 166.409 5.61067 166.345 6.72C166.302 7.808 166.228 9.04533 166.121 10.432C166.036 11.7973 165.94 13.216 165.833 14.688C165.748 16.16 165.652 17.5253 165.545 18.784C165.46 20.0427 165.385 21.1093 165.321 21.984C165.257 22.8587 165.214 23.3707 165.193 23.52C165.172 23.6907 165.129 23.8187 165.065 23.904C165.001 23.968 164.873 24 164.681 24H162.921C161.748 24 160.894 23.7653 160.361 23.296C159.849 22.8267 159.593 22.1547 159.593 21.28C159.593 21.1093 159.604 20.768 159.625 20.256C159.646 19.744 159.689 18.944 159.753 17.856H152.297Z" fill="#FFB71B"/>
<path d="M61.4218 18.24C61.3577 19.2213 61.2831 20.16 61.1978 21.056C61.1124 21.9307 61.0484 22.6987 61.0057 23.36C60.9844 23.616 60.9311 23.7867 60.8457 23.872C60.7604 23.9573 60.5791 24 60.3017 24H59.1497C58.4884 24 57.9444 23.936 57.5177 23.808C57.1124 23.6587 56.7817 23.456 56.5257 23.2C56.2911 22.944 56.1204 22.6347 56.0137 22.272C55.9284 21.888 55.8857 21.4507 55.8857 20.96C55.8857 20.64 55.8964 20.192 55.9177 19.616C55.9604 19.0187 56.0244 18.208 56.1097 17.184C56.1951 16.1387 56.2911 14.8267 56.3977 13.248C56.5257 11.648 56.6751 9.67467 56.8457 7.328C56.8671 6.85867 56.9204 6.58133 57.0057 6.496C57.0697 6.432 57.2404 6.4 57.5177 6.4H58.7657C59.4057 6.4 59.9284 6.47467 60.3337 6.624C60.7391 6.77333 61.0697 6.96533 61.3257 7.2C61.5817 7.43467 61.7631 7.712 61.8698 8.032C61.9764 8.352 62.0404 8.68267 62.0617 9.024C62.6804 7.872 63.3844 7.09333 64.1737 6.688C64.9631 6.28267 65.8911 6.08 66.9578 6.08C67.5338 6.08 68.0884 6.13333 68.6217 6.24C69.1551 6.34667 69.6351 6.528 70.0618 6.784C70.4884 7.04 70.8511 7.38133 71.1497 7.808C71.4484 8.21333 71.6618 8.736 71.7898 9.376C72.4511 8.13867 73.1764 7.28533 73.9657 6.816C74.7551 6.32533 75.7471 6.08 76.9418 6.08C77.6031 6.08 78.2324 6.15467 78.8298 6.304C79.4484 6.432 79.9818 6.66667 80.4298 7.008C80.8778 7.34933 81.2298 7.81867 81.4858 8.416C81.7631 8.992 81.9018 9.71733 81.9018 10.592C81.9018 11.2533 81.8698 12.064 81.8057 13.024C81.7418 13.984 81.6671 15.0293 81.5818 16.16C81.4964 17.2693 81.4004 18.4213 81.2938 19.616C81.1871 20.7893 81.1018 21.92 81.0378 23.008C81.0164 23.2427 80.9951 23.424 80.9738 23.552C80.9524 23.68 80.9098 23.776 80.8458 23.84C80.8031 23.904 80.7284 23.9467 80.6217 23.968C80.5151 23.9893 80.3657 24 80.1737 24H79.1497C78.4671 24 77.9124 23.936 77.4858 23.808C77.0591 23.68 76.7284 23.4987 76.4938 23.264C76.2591 23.0293 76.0884 22.7413 75.9818 22.4C75.8964 22.0373 75.8538 21.632 75.8538 21.184C75.8538 20.9067 75.8644 20.512 75.8857 20C75.9284 19.488 75.9711 18.9333 76.0138 18.336C76.0778 17.7387 76.1311 17.12 76.1737 16.48C76.2378 15.84 76.2911 15.2533 76.3337 14.72C76.3978 14.1653 76.4404 13.6853 76.4618 13.28C76.5044 12.8747 76.5258 12.608 76.5258 12.48C76.5258 11.9253 76.4084 11.4347 76.1737 11.008C75.9604 10.5813 75.5338 10.368 74.8938 10.368C74.3391 10.368 73.8591 10.5493 73.4538 10.912C73.0484 11.2747 72.7071 11.776 72.4298 12.416C72.1524 13.056 71.9284 13.8133 71.7577 14.688C71.5871 15.5627 71.4698 16.512 71.4058 17.536C71.3631 18.1973 71.3098 18.9547 71.2458 19.808C71.1817 20.6613 71.1071 21.728 71.0217 23.008C71.0004 23.2427 70.9791 23.424 70.9578 23.552C70.9364 23.68 70.8938 23.776 70.8298 23.84C70.7871 23.904 70.7124 23.9467 70.6058 23.968C70.4991 23.9893 70.3498 24 70.1578 24H69.1337C68.4511 24 67.8964 23.936 67.4698 23.808C67.0431 23.68 66.7124 23.4987 66.4777 23.264C66.2431 23.0293 66.0724 22.7413 65.9657 22.4C65.8804 22.0373 65.8378 21.632 65.8378 21.184C65.8378 20.7573 65.8698 20.1387 65.9338 19.328C66.0191 18.496 66.0938 17.6427 66.1578 16.768C66.2431 15.872 66.3178 15.0293 66.3818 14.24C66.4671 13.4293 66.5098 12.8427 66.5098 12.48C66.5098 11.9253 66.3924 11.4347 66.1578 11.008C65.9444 10.5813 65.5178 10.368 64.8778 10.368C64.3018 10.368 63.8111 10.5813 63.4058 11.008C63.0004 11.4347 62.6591 12.0107 62.3818 12.736C62.1257 13.44 61.9124 14.272 61.7417 15.232C61.5924 16.192 61.4857 17.1947 61.4218 18.24ZM83.9607 20.064C83.9607 18.144 84.8247 16.64 86.5527 15.552C88.2807 14.464 90.8301 13.8773 94.2008 13.792C94.2221 13.5573 94.2327 13.3653 94.2327 13.216C94.2541 13.0453 94.2647 12.8427 94.2647 12.608C94.2647 11.9253 94.1367 11.3813 93.8807 10.976C93.6247 10.5707 93.0914 10.368 92.2808 10.368C91.8327 10.368 91.4701 10.432 91.1927 10.56C90.9154 10.688 90.6914 10.8693 90.5207 11.104C90.3501 11.3173 90.2114 11.584 90.1047 11.904C89.9981 12.224 89.9021 12.576 89.8167 12.96C89.7741 13.152 89.6781 13.28 89.5287 13.344C89.3794 13.3867 89.1447 13.408 88.8247 13.408C86.6487 13.408 85.5607 12.5867 85.5607 10.944C85.5607 10.2827 85.7101 9.65333 86.0087 9.056C86.3287 8.45867 86.7874 7.94667 87.3847 7.52C88.0034 7.072 88.7714 6.72 89.6887 6.464C90.6061 6.208 91.6727 6.08 92.8888 6.08C95.2568 6.08 96.9741 6.57067 98.0408 7.552C99.1074 8.53333 99.6408 9.92 99.6408 11.712C99.6408 11.9467 99.6088 12.3733 99.5448 12.992C99.5021 13.5893 99.4381 14.2293 99.3527 14.912C99.2888 15.5733 99.2248 16.2027 99.1608 16.8C99.1181 17.3973 99.0968 17.8133 99.0968 18.048C99.0968 18.5813 99.1928 18.9653 99.3848 19.2C99.5768 19.4133 99.7901 19.5627 100.025 19.648C100.281 19.7333 100.505 19.7973 100.697 19.84C100.889 19.8827 100.985 19.9893 100.985 20.16C100.985 20.6293 100.921 21.1093 100.793 21.6C100.665 22.0907 100.451 22.5387 100.153 22.944C99.8754 23.3493 99.4807 23.68 98.9688 23.936C98.4781 24.192 97.8701 24.32 97.1447 24.32C96.1208 24.32 95.3528 24.0747 94.8407 23.584C94.3287 23.0933 93.9874 22.4107 93.8167 21.536C93.3047 22.2827 92.6327 22.9333 91.8007 23.488C90.9901 24.0427 89.9234 24.32 88.6007 24.32C87.9607 24.32 87.3527 24.2453 86.7767 24.096C86.2221 23.9467 85.7314 23.7013 85.3047 23.36C84.8994 23.0187 84.5687 22.5813 84.3127 22.048C84.0781 21.4933 83.9607 20.832 83.9607 20.064ZM93.9128 16.416C93.3581 16.416 92.8141 16.4587 92.2808 16.544C91.7474 16.6293 91.2674 16.768 90.8407 16.96C90.4354 17.1307 90.1047 17.3653 89.8487 17.664C89.5927 17.9627 89.4647 18.3253 89.4647 18.752C89.4647 19.2427 89.6141 19.584 89.9127 19.776C90.2327 19.968 90.5741 20.064 90.9367 20.064C91.2781 20.064 91.6194 19.9893 91.9607 19.84C92.3021 19.6907 92.6007 19.4667 92.8567 19.168C93.1341 18.848 93.3687 18.464 93.5608 18.016C93.7528 17.568 93.8701 17.0347 93.9128 16.416ZM113.448 14.048C113.32 14.048 113.171 14.048 113 14.048C112.851 14.0267 112.701 14.0053 112.552 13.984C112.403 13.9413 112.275 13.8987 112.168 13.856C112.061 13.792 112.008 13.7173 112.008 13.632C112.008 13.3547 112.019 13.0987 112.04 12.864C112.061 12.6293 112.072 12.384 112.072 12.128C112.072 11.6587 112.008 11.2747 111.88 10.976C111.752 10.6773 111.496 10.528 111.112 10.528C110.515 10.528 110.013 10.9227 109.608 11.712C109.224 12.48 108.979 13.6427 108.872 15.2C108.829 15.8827 108.765 16.6613 108.68 17.536C108.616 18.3893 108.552 19.2213 108.488 20.032C108.424 20.8213 108.371 21.5253 108.328 22.144C108.285 22.7627 108.264 23.168 108.264 23.36C108.264 23.5733 108.189 23.7333 108.04 23.84C107.891 23.9467 107.731 24 107.56 24H106.408C105.747 24 105.203 23.936 104.776 23.808C104.371 23.6587 104.04 23.456 103.784 23.2C103.549 22.944 103.379 22.6347 103.272 22.272C103.187 21.888 103.144 21.4507 103.144 20.96C103.144 20.64 103.155 20.192 103.176 19.616C103.219 19.0187 103.283 18.208 103.368 17.184C103.453 16.1387 103.549 14.8267 103.656 13.248C103.784 11.648 103.933 9.67467 104.104 7.328C104.147 6.70933 104.371 6.4 104.776 6.4H106.024C106.621 6.4 107.123 6.464 107.528 6.592C107.933 6.72 108.264 6.90133 108.52 7.136C108.776 7.34933 108.957 7.60533 109.064 7.904C109.192 8.20267 109.277 8.512 109.32 8.832C109.576 8.34133 109.875 7.92533 110.216 7.584C110.579 7.22133 110.952 6.93333 111.336 6.72C111.72 6.48533 112.115 6.32533 112.52 6.24C112.925 6.13333 113.299 6.08 113.64 6.08C114.045 6.08 114.451 6.15467 114.856 6.304C115.283 6.45333 115.667 6.67733 116.008 6.976C116.349 7.27467 116.616 7.65867 116.808 8.128C117.021 8.59733 117.128 9.152 117.128 9.792C117.128 10.368 117.043 10.912 116.872 11.424C116.701 11.936 116.456 12.3947 116.136 12.8C115.816 13.184 115.421 13.4933 114.952 13.728C114.504 13.9413 114.003 14.048 113.448 14.048ZM125.464 10.72C125.4 11.5307 125.326 12.3307 125.24 13.12C125.176 13.9093 125.112 14.656 125.048 15.36C124.984 16.064 124.931 16.6933 124.888 17.248C124.867 17.8027 124.856 18.2293 124.856 18.528C124.856 19.0827 124.92 19.456 125.048 19.648C125.176 19.8187 125.39 19.904 125.688 19.904C125.923 19.904 126.126 19.8613 126.296 19.776C126.467 19.6907 126.627 19.5947 126.776 19.488C126.926 19.3813 127.054 19.2853 127.16 19.2C127.288 19.1147 127.427 19.072 127.576 19.072C127.726 19.072 127.864 19.1573 127.992 19.328C128.12 19.4987 128.184 19.8933 128.184 20.512C128.184 21.6853 127.864 22.6133 127.224 23.296C126.584 23.9787 125.486 24.32 123.928 24.32C122.392 24.32 121.251 23.968 120.504 23.264C119.779 22.5387 119.416 21.44 119.416 19.968C119.416 19.648 119.427 19.2747 119.448 18.848C119.491 18.4 119.544 17.824 119.608 17.12C119.672 16.416 119.747 15.552 119.832 14.528C119.939 13.504 120.046 12.2347 120.152 10.72H118.456C118.286 10.72 118.179 10.688 118.136 10.624C118.115 10.5387 118.104 10.4213 118.104 10.272L118.2 8.64C118.222 8.36267 118.254 8.096 118.296 7.84C118.36 7.56267 118.467 7.31733 118.616 7.104C118.787 6.89067 119.022 6.72 119.32 6.592C119.619 6.464 120.014 6.4 120.504 6.4C120.654 6.016 120.824 5.55733 121.016 5.024C121.208 4.49067 121.4 3.97867 121.592 3.488C121.784 2.976 121.966 2.54933 122.136 2.208C122.328 1.86667 122.499 1.696 122.648 1.696H123.576C124.472 1.696 125.091 1.97333 125.432 2.528C125.774 3.08267 125.944 3.744 125.944 4.512C125.944 4.93867 125.912 5.568 125.848 6.4H129.208C129.55 6.4 129.72 6.54933 129.72 6.848L129.592 8.576C129.55 9.216 129.368 9.73867 129.049 10.144C128.75 10.528 128.12 10.72 127.16 10.72H125.464Z" fill="#55565A"/>
</svg>
